# xmcd
#
# Track frame offsets: 
#        300
#        18122
#        61704
#        90885
#        124544
#        145701
#        174566
#        193677
#        225907
#
# Disc length: 3445 seconds
#
# Revision: 5
# Processed by: cddbd v1.5.2PL0 Copyright (c) Steve Scherf et al.
# Submitted via: ExactAudioCopy v1.0b1
#
DISCID=5e0d7109
DTITLE=Carey Bell - Goin' On Main Street
DYEAR=1994
DGENRE=Harmonica Blues
TTITLE0=Goin' On Main Street
TTITLE1=I Am Worried
TTITLE2=Heartaches And Pain
TTITLE3=Easy To Love You
TTITLE4=Train Ticket
TTITLE5=When A Woman Get In Trouble
TTITLE6=Tribute To Big Walter
TTITLE7=I Need You So Bad
TTITLE8=Man And The Blues
EXTD=YEAR: 1994
EXTT0=
EXTT1=
EXTT2=
EXTT3=
EXTT4=
EXTT5=
EXTT6=
EXTT7=
EXTT8=
PLAYORDER=
